# xmcd
#
# Track frame offsets: 
#        150
#        14978
#        29934
#        44528
#        60397
#        69111
#        80452
#        88059
#        99616
#        111369
#        122978
#        134615
#        146333
#        157954
#        169615
#        186562
#        205705
#
# Disc length: 2997 seconds
#
# Revision: 0
# Processed by: cddbd v1.5.2PL0 Copyright (c) Steve Scherf et al.
# Submitted via: ExactAudioCopy v0.95b3
#
DISCID=fa0bb311
DTITLE=Jimi Hendrix  - Moonbeams and Fairytales - Disc 02
DYEAR=1900
DGENRE=
TTITLE0=Foxy Lady
TTITLE1=Foxy Lady
TTITLE2=Foxy Lady
TTITLE3=Foxy Lady
TTITLE4=Can You See Me
TTITLE5=Can You See Me
TTITLE6=Can You See Me
TTITLE7=Can You See Me
TTITLE8=Can You See Me
TTITLE9=Can You See Me
TTITLE10=Can You See Me
TTITLE11=Can You See Me
TTITLE12=Can You See Me
TTITLE13=Can You See Me
TTITLE14=Red House
TTITLE15=Red House
TTITLE16=Hey Joe
EXTD=
EXTT0=
EXTT1=
EXTT2=
EXTT3=
EXTT4=
EXTT5=
EXTT6=
EXTT7=
EXTT8=
EXTT9=
EXTT10=
EXTT11=
EXTT12=
EXTT13=
EXTT14=
EXTT15=
EXTT16=
PLAYORDER=
